<svg width="105" height="27" viewBox="0 0 105 27" fill="none" xmlns="http://www.w3.org/2000/svg">
<path d="M13.6978 17.624H21.4498V20H10.4578V17.864L18.1858 5.696H10.4578V3.32H21.4498V5.456L13.6978 17.624ZM36.3446 6.776L28.2326 26.216H25.4006L28.0886 19.784L22.8806 6.776H25.9286L29.6486 16.856L33.5126 6.776H36.3446ZM41.1454 2.24V20H38.4094V2.24H41.1454ZM43.8255 13.328C43.8255 12 44.0975 10.824 44.6415 9.8C45.2015 8.776 45.9535 7.984 46.8975 7.424C47.8575 6.848 48.9135 6.56 50.0655 6.56C51.1055 6.56 52.0095 6.768 52.7775 7.184C53.5615 7.584 54.1855 8.088 54.6495 8.696V6.776H57.4095V20H54.6495V18.032C54.1855 18.656 53.5535 19.176 52.7535 19.592C51.9535 20.008 51.0415 20.216 50.0175 20.216C48.8815 20.216 47.8415 19.928 46.8975 19.352C45.9535 18.76 45.2015 17.944 44.6415 16.904C44.0975 15.848 43.8255 14.656 43.8255 13.328ZM54.6495 13.376C54.6495 12.464 54.4575 11.672 54.0735 11C53.7055 10.328 53.2175 9.816 52.6095 9.464C52.0015 9.112 51.3455 8.936 50.6415 8.936C49.9375 8.936 49.2815 9.112 48.6735 9.464C48.0655 9.8 47.5695 10.304 47.1855 10.976C46.8175 11.632 46.6335 12.416 46.6335 13.328C46.6335 14.24 46.8175 15.04 47.1855 15.728C47.5695 16.416 48.0655 16.944 48.6735 17.312C49.2975 17.664 49.9535 17.84 50.6415 17.84C51.3455 17.84 52.0015 17.664 52.6095 17.312C53.2175 16.96 53.7055 16.448 54.0735 15.776C54.4575 15.088 54.6495 14.288 54.6495 13.376ZM63.7391 8.696C64.1391 8.024 64.6671 7.504 65.3231 7.136C65.9951 6.752 66.7871 6.56 67.6991 6.56V9.392H67.0031C65.9311 9.392 65.1151 9.664 64.5551 10.208C64.0111 10.752 63.7391 11.696 63.7391 13.04V20H61.0031V6.776H63.7391V8.696ZM75.9501 20.216C74.7021 20.216 73.5741 19.936 72.5661 19.376C71.5581 18.8 70.7661 18 70.1901 16.976C69.6141 15.936 69.3261 14.736 69.3261 13.376C69.3261 12.032 69.6221 10.84 70.2141 9.8C70.8061 8.76 71.6141 7.96 72.6381 7.4C73.6621 6.84 74.8061 6.56 76.0701 6.56C77.3341 6.56 78.4781 6.84 79.5021 7.4C80.5261 7.96 81.3341 8.76 81.9261 9.8C82.5181 10.84 82.8141 12.032 82.8141 13.376C82.8141 14.72 82.5101 15.912 81.9021 16.952C81.2941 17.992 80.4621 18.8 79.4061 19.376C78.3661 19.936 77.2141 20.216 75.9501 20.216ZM75.9501 17.84C76.6541 17.84 77.3101 17.672 77.9181 17.336C78.5421 17 79.0461 16.496 79.4301 15.824C79.8141 15.152 80.0061 14.336 80.0061 13.376C80.0061 12.416 79.8221 11.608 79.4541 10.952C79.0861 10.28 78.5981 9.776 77.9901 9.44C77.3821 9.104 76.7261 8.936 76.0221 8.936C75.3181 8.936 74.6621 9.104 74.0541 9.44C73.4621 9.776 72.9901 10.28 72.6381 10.952C72.2861 11.608 72.1101 12.416 72.1101 13.376C72.1101 14.8 72.4701 15.904 73.1901 16.688C73.9261 17.456 74.8461 17.84 75.9501 17.84Z" fill="black"/>
<path d="M86.6228 20.168C86.1268 20.168 85.7108 20 85.3748 19.664C85.0388 19.328 84.8708 18.912 84.8708 18.416C84.8708 17.92 85.0388 17.504 85.3748 17.168C85.7108 16.832 86.1268 16.664 86.6228 16.664C87.1028 16.664 87.5108 16.832 87.8468 17.168C88.1828 17.504 88.3508 17.92 88.3508 18.416C88.3508 18.912 88.1828 19.328 87.8468 19.664C87.5108 20 87.1028 20.168 86.6228 20.168Z" fill="#6C7275"/>
</svg>
